<svg xmlns="http://www.w3.org/2000/svg" xmlns:xlink="http://www.w3.org/1999/xlink" width="1920" zoomAndPan="magnify" viewBox="0 0 1440 1439.999935" height="1920" preserveAspectRatio="xMidYMid meet" version="1.0"><defs><g/><clipPath id="5e643ed371"><path d="M 365.074219 295.199219 L 941 295.199219 L 941 719.699219 L 365.074219 719.699219 Z M 365.074219 295.199219 " clip-rule="nonzero"/></clipPath><clipPath id="21871b2885"><path d="M 187.652344 106.1875 L 1173.902344 106.1875 L 1173.902344 1092.4375 L 187.652344 1092.4375 Z M 187.652344 106.1875 " clip-rule="nonzero"/></clipPath></defs><g clip-path="url(#5e643ed371)"><path fill="#00adef" d="M 940.375 691.839844 C 829.78125 682.289062 734.265625 691.839844 653.828125 719.992188 C 682.734375 656.148438 762.917969 623.722656 894.378906 622.96875 C 894.378906 622.96875 886.585938 601.855469 870.5 559.628906 C 914.488281 624.730469 936.355469 657.40625 936.355469 657.40625 C 812.183594 635.789062 722.703125 651.625 667.90625 704.660156 C 768.449219 655.394531 859.1875 651.121094 940.375 691.839844 Z M 496.730469 457.324219 C 625.175781 502.570312 652.070312 597.078125 663.632812 644.335938 C 674.441406 577.472656 693.042969 519.914062 719.433594 471.652344 C 698.570312 518.65625 675.445312 602.609375 651.566406 718.484375 C 622.160156 655.394531 542.226562 623.722656 411.523438 622.96875 C 411.523438 622.96875 419.3125 601.855469 435.402344 559.628906 C 391.414062 624.730469 369.546875 657.40625 369.546875 657.40625 C 493.964844 635.789062 583.199219 651.625 637.992188 704.660156 C 537.703125 655.394531 447.214844 651.121094 365.773438 691.839844 C 476.371094 682.289062 571.886719 691.839844 652.320312 719.992188 C 652.070312 719.488281 651.820312 719.238281 651.566406 718.734375 C 653.328125 715.972656 671.171875 658.160156 672.933594 648.859375 C 684.496094 646.09375 700.582031 631.011719 720.691406 603.113281 C 716.921875 605.878906 712.898438 606.882812 709.128906 606.378906 C 747.585938 571.191406 756.132812 541.78125 873.265625 525.441406 C 815.453125 521.421875 765.683594 538.011719 723.957031 575.460938 C 722.199219 576.46875 720.1875 577.472656 718.429688 578.226562 C 718.429688 578.226562 731.5 565.410156 757.640625 540.023438 C 765.933594 529.96875 772.21875 512.121094 776.742188 486.484375 C 776.742188 486.484375 773.476562 488.746094 767.191406 493.019531 C 767.191406 493.019531 769.957031 489.75 775.234375 482.964844 C 784.785156 444.253906 790.566406 404.539062 792.828125 363.570312 L 778.753906 374.628906 L 794.589844 353.011719 C 795.34375 346.726562 797.605469 306.511719 797.605469 295.199219 C 793.332031 296.457031 748.84375 329.132812 744.316406 334.160156 C 744.316406 334.160156 741.554688 341.953125 736.023438 357.789062 C 736.023438 357.789062 737.28125 351 739.792969 337.175781 C 713.902344 359.296875 696.558594 390.464844 688.015625 430.679688 C 688.015625 430.679688 687.761719 424.648438 687.511719 412.582031 C 663.382812 460.089844 653.578125 517.148438 658.101562 584.511719 L 652.824219 574.457031 C 618.640625 512.625 566.859375 473.914062 496.730469 457.324219 Z M 496.730469 457.324219 " fill-opacity="1" fill-rule="evenodd"/></g><g clip-path="url(#21871b2885)"><path fill="#00adef" d="M 221.074219 777.820312 C 199.507812 722.394531 187.640625 662.121094 187.640625 599.097656 C 187.640625 327.050781 408.53125 106.160156 680.605469 106.160156 C 952.6875 106.160156 1173.574219 327.050781 1173.574219 599.097656 C 1173.574219 662.121094 1161.707031 722.394531 1140.140625 777.820312 C 1118.734375 832.726562 1087.785156 882.878906 1049.304688 926.179688 C 958.957031 1027.941406 827.222656 1092.0625 680.605469 1092.0625 C 533.996094 1092.0625 402.222656 1027.941406 311.90625 926.179688 C 273.429688 882.878906 242.484375 832.726562 221.074219 777.820312 Z M 869.226562 917.15625 C 810.503906 914.667969 746.960938 913.082031 680.605469 913.082031 C 614.253906 913.082031 550.710938 914.667969 491.988281 917.15625 C 547.21875 950.011719 611.730469 968.863281 680.605469 968.863281 C 749.484375 968.863281 813.996094 950.011719 869.226562 917.15625 Z M 348.027344 760.777344 C 439.667969 754.183594 555.144531 748.492188 680.605469 748.492188 C 806.039062 748.492188 921.546875 754.183594 1013.1875 760.777344 C 1036.984375 711.917969 1050.375 657.074219 1050.375 599.097656 C 1050.375 395.023438 884.683594 229.332031 680.605469 229.332031 C 476.53125 229.332031 310.839844 395.023438 310.839844 599.097656 C 310.839844 657.074219 324.195312 711.917969 348.027344 760.777344 Z M 1043.648438 917.933594 C 1079.21875 877.480469 1108.160156 830.980469 1128.722656 780.246094 C 1097.648438 777.238281 1059.460938 773.875 1015.742188 770.671875 C 923.777344 764.011719 807.269531 758.191406 680.605469 758.191406 C 553.945312 758.191406 437.40625 764.011719 345.472656 770.671875 C 301.753906 773.875 263.566406 777.238281 232.488281 780.246094 C 253.058594 830.980469 281.996094 877.480469 317.566406 917.933594 C 363.742188 914.34375 417.230469 910.820312 475.949219 908.132812 C 539.070312 905.257812 608.175781 903.382812 680.605469 903.382812 C 753.039062 903.382812 822.144531 905.257812 885.265625 908.132812 C 943.953125 910.820312 997.472656 914.34375 1043.648438 917.933594 Z M 1132.410156 770.867188 C 1152.71875 717.480469 1163.875 659.597656 1163.875 599.097656 C 1163.875 332.386719 947.316406 115.863281 680.605469 115.863281 C 413.898438 115.863281 197.339844 332.386719 197.339844 599.097656 C 197.339844 659.597656 208.496094 717.480469 228.804688 770.867188 C 258.746094 767.925781 295.515625 764.660156 337.617188 761.523438 C 314.238281 712.273438 301.140625 657.203125 301.140625 599.097656 C 301.140625 389.6875 471.164062 219.628906 680.605469 219.628906 C 890.050781 219.628906 1060.074219 389.6875 1060.074219 599.097656 C 1060.074219 657.203125 1046.980469 712.273438 1023.601562 761.523438 C 1065.703125 764.660156 1102.46875 767.925781 1132.410156 770.867188 Z M 325.75 927.050781 C 414.058594 1022.542969 540.398438 1082.363281 680.605469 1082.363281 C 820.820312 1082.363281 947.125 1022.542969 1035.433594 927.050781 C 991.519531 923.65625 941.238281 920.421875 886.394531 917.902344 C 827.09375 956.285156 756.4375 978.5625 680.605469 978.5625 C 604.78125 978.5625 534.125 956.285156 474.820312 917.902344 C 419.976562 920.421875 369.695312 923.65625 325.75 927.050781 Z M 325.75 927.050781 " fill-opacity="1" fill-rule="evenodd"/></g><g fill="#00adef" fill-opacity="1"><g transform="translate(517.77426, 893.618566)"><g><path d="M 14.484375 0 L 14.484375 -118.609375 L 52.578125 -118.609375 L 52.578125 0 Z M 14.484375 0 "/></g></g></g><g fill="#00adef" fill-opacity="1"><g transform="translate(584.835716, 893.618566)"><g><path d="M 92.234375 0 L 87.234375 -16.71875 L 45.6875 -16.71875 L 40.6875 0 L 1.71875 0 L 45 -118.609375 L 89.3125 -118.609375 L 132.578125 0 Z M 53.625 -43.28125 L 79.3125 -43.28125 L 66.890625 -85.515625 L 66.203125 -85.515625 Z M 53.625 -43.28125 "/></g></g></g><g fill="#00adef" fill-opacity="1"><g transform="translate(718.958632, 893.618566)"><g><path d="M 62.578125 -120.6875 C 77.753906 -120.6875 90.226562 -117.609375 100 -111.453125 C 109.769531 -105.304688 114.769531 -96.203125 115 -84.140625 L 115 -82.0625 L 79.3125 -82.0625 L 79.3125 -82.75 C 79.3125 -86.195312 78.046875 -89.070312 75.515625 -91.375 C 72.984375 -93.675781 69.132812 -94.828125 63.96875 -94.828125 C 58.90625 -94.828125 55.023438 -94.078125 52.328125 -92.578125 C 49.628906 -91.085938 48.28125 -89.25 48.28125 -87.0625 C 48.28125 -83.957031 50.117188 -81.65625 53.796875 -80.15625 C 57.472656 -78.664062 63.390625 -77.117188 71.546875 -75.515625 C 81.085938 -73.554688 88.929688 -71.515625 95.078125 -69.390625 C 101.234375 -67.265625 106.609375 -63.785156 111.203125 -58.953125 C 115.796875 -54.128906 118.148438 -47.582031 118.265625 -39.3125 C 118.265625 -25.289062 113.523438 -14.890625 104.046875 -8.109375 C 94.566406 -1.328125 81.894531 2.0625 66.03125 2.0625 C 47.53125 2.0625 33.132812 -1.035156 22.84375 -7.234375 C 12.550781 -13.441406 7.40625 -24.421875 7.40625 -40.171875 L 43.453125 -40.171875 C 43.453125 -34.191406 45 -30.195312 48.09375 -28.1875 C 51.195312 -26.175781 56.023438 -25.171875 62.578125 -25.171875 C 67.410156 -25.171875 71.40625 -25.6875 74.5625 -26.71875 C 77.726562 -27.757812 79.3125 -29.890625 79.3125 -33.109375 C 79.3125 -35.972656 77.554688 -38.125 74.046875 -39.5625 C 70.546875 -41 64.828125 -42.523438 56.890625 -44.140625 C 47.234375 -46.203125 39.242188 -48.351562 32.921875 -50.59375 C 26.609375 -52.84375 21.09375 -56.550781 16.375 -61.71875 C 11.664062 -66.894531 9.3125 -73.90625 9.3125 -82.75 C 9.3125 -95.738281 14.335938 -105.304688 24.390625 -111.453125 C 34.453125 -117.609375 47.179688 -120.6875 62.578125 -120.6875 Z M 62.578125 -120.6875 "/></g></g></g></svg>